<svg xmlns="http://www.w3.org/2000/svg" width="800" height="480" viewBox="0 0 800 480"><rect width="800" height="480" rx="12" fill="#f4f4f1"/><rect x="28" y="28" width="744" height="424" rx="9" fill="white" stroke="#e6e6e2"/><path d="M28 81h744M184 81v371" stroke="#ededeb"/><g font-family="Arial,sans-serif" fill="#292d2a"><text x="51" y="60" font-size="16" font-weight="bold">spectron</text><text x="209" y="60" font-size="12" fill="#898c88">Settings / Integrations</text><text x="52" y="119" font-size="12" fill="#92958f">Workspace</text><text x="52" y="155" font-size="13">General</text><text x="52" y="191" font-size="13">Members</text><rect x="41" y="210" width="130" height="33" rx="5" fill="#f0f1ed"/><text x="52" y="231" font-size="13">Integrations</text><text x="216" y="120" font-size="21" font-weight="bold">Connect GitLab</text><text x="216" y="147" font-size="12" fill="#898c88">Your repositories, in the conversation.</text><path d="M242 206l-16-13 5-16 5 13h12l5-13 5 16z" fill="#df8b52"/><text x="272" y="195" font-size="14" font-weight="bold">Self-hosted GitLab</text><text x="272" y="215" font-size="11" fill="#898c88">Connect your team's instance</text><text x="216" y="257" font-size="11">Instance URL</text><rect x="216" y="270" width="504" height="36" rx="5" fill="#fafbf9" stroke="#e1e3dd"/><text x="228" y="293" font-size="12" fill="#767d74">https://gitlab.spectron.dev</text><text x="216" y="336" font-size="11">Personal access token</text><rect x="216" y="349" width="504" height="36" rx="5" fill="#fafbf9" stroke="#e1e3dd"/><text x="228" y="372" font-size="12" fill="#767d74">••••••••••••••••••••••••</text><rect x="612" y="401" width="108" height="30" rx="5" fill="#343c32"/><text x="637" y="420" font-size="11" fill="white">Connect →</text></g></svg>